<?xml version="1.0" encoding="UTF-8"?>
<svg version="1.1" xmlns="http://www.w3.org/2000/svg" width="48" height="48">
<path d="M0 0 C1.32 0.33 2.64 0.66 4 1 C4.33 2.98 4.66 4.96 5 7 C5.5775 6.855625 6.155 6.71125 6.75 6.5625 C8.83333333 6.04166667 10.91666667 5.52083333 13 5 C13.77083333 6.54166667 14.54166667 8.08333333 15.3125 9.625 C15.77785156 10.5428125 16.24320313 11.460625 16.72265625 12.40625 C18 15 18 15 19.25 18.125 C21.5634727 21.92570515 24.64871028 24.25234343 28.13671875 26.97265625 C30 29 30 29 30.45703125 31.62109375 C30.30621094 32.40613281 30.15539063 33.19117188 30 34 C26.17496091 36.55002606 24.30263861 36.28410955 19.86328125 35.71875 C9.94010052 33.2278015 -2.66381215 24.33618785 -10 17 C-10.04063832 15.33382885 -10.042721 13.66611905 -10 12 C-9.38125 11.773125 -8.7625 11.54625 -8.125 11.3125 C-5.3780195 9.61583557 -5.13364727 7.94748289 -4 5 C-3.01 4.67 -2.02 4.34 -1 4 C-0.26676204 1.98491642 -0.26676204 1.98491642 0 0 Z " fill="#109997" transform="translate(14,6)"/>
<path d="M0 0 C4.78067911 4.00915741 9.31414852 8.12846003 13.58203125 12.69140625 C19.96314514 19.36060655 24.69716502 22.67102357 34 24 C30.7 20.37 27.4 16.74 24 13 C24.33 12.34 24.66 11.68 25 11 C25.54269531 11.55429687 26.08539063 12.10859375 26.64453125 12.6796875 C27.71767578 13.76636719 27.71767578 13.76636719 28.8125 14.875 C29.52019531 15.59429687 30.22789063 16.31359375 30.95703125 17.0546875 C33.04399194 19.15358937 33.04399194 19.15358937 36 21 C36.375 23.5 36.375 23.5 36 26 C32.17496091 28.55002606 30.30263861 28.28410955 25.86328125 27.71875 C15.94010052 25.2278015 3.33618785 16.33618785 -4 9 C-4.04063832 7.33382885 -4.042721 5.66611905 -4 4 C-2.68 3.34 -1.36 2.68 0 2 C0 1.34 0 0.68 0 0 Z " fill="#00965C" transform="translate(8,14)"/>
<path d="M0 0 C3.3840793 1.4810143 5.74191253 3.42878168 8.4375 5.9375 C14.05833144 11.16731708 17.12625984 12.87517998 25 14 C21.7 10.37 18.4 6.74 15 3 C15.33 2.34 15.66 1.68 16 1 C16.54269531 1.55429687 17.08539063 2.10859375 17.64453125 2.6796875 C18.35996094 3.40414063 19.07539062 4.12859375 19.8125 4.875 C20.87404297 5.95394531 20.87404297 5.95394531 21.95703125 7.0546875 C24.04399194 9.15358937 24.04399194 9.15358937 27 11 C27.375 13.5 27.375 13.5 27 16 C23.5647952 18.29013653 22.014669 18.17842973 18 18 C18 17.34 18 16.68 18 16 C17.31550781 15.90976562 16.63101563 15.81953125 15.92578125 15.7265625 C12.32037693 14.83122845 9.35654375 13.24745617 6.1875 11.375 C5.59001953 11.05660156 4.99253906 10.73820312 4.37695312 10.41015625 C2.66796875 9.3984375 2.66796875 9.3984375 0 7 C-0.38671875 3.2265625 -0.38671875 3.2265625 0 0 Z " fill="#00F675" transform="translate(17,24)"/>
<path d="M0 0 C0.99 0 1.98 0 3 0 C4.2109375 1.42578125 4.2109375 1.42578125 5.375 3.3125 C7.51349004 6.52348504 9.47176778 8.28628721 13 10 C11.02 10.99 11.02 10.99 9 12 C10.32 12.66 11.64 13.32 13 14 C12.01 14 11.02 14 10 14 C9.67 14.66 9.34 15.32 9 16 C5.92533752 13.73921876 3.20464906 11.3026561 0.625 8.5 C0.10164062 7.9328125 -0.42171875 7.365625 -0.9609375 6.78125 C-2 5 -2 5 -1.7265625 2.84375 C-1 1 -1 1 0 0 Z " fill="#020A09" transform="translate(11,10)"/>
<path d="M0 0 C1.68359375 1.57421875 1.68359375 1.57421875 3.4375 3.6875 C4.0459375 4.41324219 4.654375 5.13898437 5.28125 5.88671875 C9.37837838 10.92432432 9.37837838 10.92432432 11 13 C4.61617531 12.83631219 0.5096059 9.14883743 -4 5 C-5.03585145 3.69432411 -6.04849138 2.36836001 -7 1 C-4.50935112 0.31292445 -2.62113708 0 0 0 Z " fill="#01120C" transform="translate(28,25)"/>
<path d="M0 0 C1.8125 0.0625 1.8125 0.0625 4 1 C5.8125 4.375 5.8125 4.375 7 8 C6.67 8.99 6.34 9.98 6 11 C3.5 9.8125 3.5 9.8125 1 8 C0.6875 5.3125 0.6875 5.3125 1 3 C0.34 3 -0.32 3 -1 3 C-0.67 2.01 -0.34 1.02 0 0 Z " fill="#00FC91" transform="translate(6,16)"/>
<path d="M0 0 C1.98 0.495 1.98 0.495 4 1 C4.12375 1.969375 4.2475 2.93875 4.375 3.9375 C4.58125 4.948125 4.7875 5.95875 5 7 C5.66 7.33 6.32 7.66 7 8 C7 9.32 7 10.64 7 12 C3.75701571 10.91900524 3.18387474 10.34373384 1.25 7.6875 C0.80140625 7.09324219 0.3528125 6.49898437 -0.109375 5.88671875 C-1 4 -1 4 -0.640625 1.76953125 C-0.42921875 1.18558594 -0.2178125 0.60164062 0 0 Z " fill="#084E4F" transform="translate(14,6)"/>
<path d="M0 0 C5.78461538 4.43076923 5.78461538 4.43076923 6.875 7.3125 C6.936875 8.1478125 6.936875 8.1478125 7 9 C4.69 9.33 2.38 9.66 0 10 C0 9.34 0 8.68 0 8 C-0.66 7.34 -1.32 6.68 -2 6 C-0.68 5.34 0.64 4.68 2 4 C1.34 2.68 0.68 1.36 0 0 Z " fill="#729A9B" transform="translate(21,16)"/>
<path d="M0 0 C1.875 0.125 1.875 0.125 4 1 C5.25 4.0625 5.25 4.0625 6 7 C5.34 7 4.68 7 4 7 C3.67 7.66 3.34 8.32 3 9 C1.68 7.35 0.36 5.7 -1 4 C-0.34 4 0.32 4 1 4 C0.67 2.68 0.34 1.36 0 0 Z " fill="#0DEEF1" transform="translate(24,11)"/>
<path d="M0 0 C0.67095703 0.58007812 0.67095703 0.58007812 1.35546875 1.171875 C1.96003906 1.69265625 2.56460938 2.2134375 3.1875 2.75 C3.82171875 3.30042969 4.4559375 3.85085937 5.109375 4.41796875 C7.12251949 6.14779871 7.12251949 6.14779871 9.9375 8.0625 C12 10 12 10 12.3125 12.75 C12.1578125 13.86375 12.1578125 13.86375 12 15 C9.31361406 12.4210695 6.79487885 9.71102205 4.3125 6.9375 C3.71050781 6.26589844 3.10851563 5.59429687 2.48828125 4.90234375 C1 3 1 3 0 0 Z " fill="#11EDEB" transform="translate(32,25)"/>
<path d="M0 0 C0.99 0.33 1.98 0.66 3 1 C3 2.65 3 4.3 3 6 C3.763125 6.268125 4.52625 6.53625 5.3125 6.8125 C7.87380884 7.94424112 9.19692938 8.91223401 11 11 C7.50494259 11 6.58927813 10.32047981 3.8125 8.3125 C3.09707031 7.81363281 2.38164063 7.31476562 1.64453125 6.80078125 C0 5 0 5 -0.23828125 2.29296875 C-0.15964844 1.53628906 -0.08101563 0.77960937 0 0 Z " fill="#01D6BD" transform="translate(4,18)"/>
<path d="M0 0 C4.455 0.99 4.455 0.99 9 2 C9 2.66 9 3.32 9 4 C6.29120665 5.35439668 3.99066732 5.06501451 1 5 C0.67 3.35 0.34 1.7 0 0 Z " fill="#03C744" transform="translate(34,37)"/>
<path d="M0 0 C1.98 0.99 1.98 0.99 4 2 C4 4.31 4 6.62 4 9 C2.68 8.34 1.36 7.68 0 7 C0 4.69 0 2.38 0 0 Z " fill="#00EF7B" transform="translate(17,24)"/>
<path d="M0 0 C3.80635497 3.20760251 7.54563567 6.40746109 11 10 C7 10 7 10 5.078125 8.3203125 C4.47484375 7.59585938 3.8715625 6.87140625 3.25 6.125 C2.63640625 5.40570313 2.0228125 4.68640625 1.390625 3.9453125 C0 2 0 2 0 0 Z " fill="#0C736F" transform="translate(32,29)"/>
<path d="M0 0 C0.66 0.33 1.32 0.66 2 1 C2 2.32 2 3.64 2 5 C3.9600281 6.63676257 3.9600281 6.63676257 6 8 C6 8.66 6 9.32 6 10 C2.63408134 8.55746343 0.48952921 6.66735273 -2 4 C-1.34 2.68 -0.68 1.36 0 0 Z " fill="#11A1A1" transform="translate(23,12)"/>
<path d="M0 0 C0.99 0 1.98 0 3 0 C3.66 2.31 4.32 4.62 5 7 C4.01 7 3.02 7 2 7 C1.34 4.69 0.68 2.38 0 0 Z " fill="#04F697" transform="translate(28,18)"/>
<path d="M0 0 C1.32 0.33 2.64 0.66 4 1 C4 2.98 4 4.96 4 7 C2 5.1875 2 5.1875 0 3 C0 2.01 0 1.02 0 0 Z " fill="#14C0C2" transform="translate(14,6)"/>
<path d="M0 0 C3 1.8125 3 1.8125 6 4 C6 4.99 6 5.98 6 7 C3.00675737 5.9024777 2.15389099 5.32317108 0.75 2.375 C0.5025 1.59125 0.255 0.8075 0 0 Z " fill="#00EC57" transform="translate(28,33)"/>
</svg>
